<?xml version="1.0" standalone="no"?><!DOCTYPE svg PUBLIC "-//W3C//DTD SVG 1.1//EN" "http://www.w3.org/Graphics/SVG/1.1/DTD/svg11.dtd"><svg t="1509096534172" class="icon" style="" viewBox="0 0 1024 1024" version="1.1" xmlns="http://www.w3.org/2000/svg" p-id="3364" xmlns:xlink="http://www.w3.org/1999/xlink" width="16" height="16"><defs><style type="text/css"></style></defs><path d="M773.394359 267.470751c-118.522394 33.785477-140.223648 129.597637-132.568295 190.472076-84.553745-99.388615-81.081667-213.710336-81.081667-378.384863-271.160793 102.241592-208.105688 396.98857-216.222553 486.495116-68.195172-55.832609-81.081667-189.187827-81.081667-189.187827-72.006987 37.041638-108.111277 135.963625-108.111277 216.21846 0 194.046484 157.309792 351.358323 351.359346 351.358323s351.359346-157.310815 351.359346-351.358323C857.048617 477.758128 772.361843 424.553369 773.394359 267.470751zM519.202029 890.387933c-171.661661 0-310.816978-144.856156-310.816978-307.438021 0-37.779442 0.843204-68.416206 27.027563-97.980545-2.859118 17.118889 37.757952 163.644057 170.402995 155.989727-5.76633-111.327528-35.864836-384.076492 103.990422-478.342436-12.360516 148.210553 23.930015 347.31831 185.856965 376.409882-9.271154-59.443857-8.18031-158.314679 33.456996-176.582741 4.467755 91.056855 71.812559 147.234319 71.812559 234.759745C800.932552 755.661486 647.608537 890.387933 519.202029 890.387933z" p-id="3365" fill="#F07373"></path></svg>