<?xml version="1.0" standalone="no"?><!DOCTYPE svg PUBLIC "-//W3C//DTD SVG 1.1//EN" "http://www.w3.org/Graphics/SVG/1.1/DTD/svg11.dtd"><svg t="1509096393039" class="icon" style="" viewBox="0 0 1024 1024" version="1.1" xmlns="http://www.w3.org/2000/svg" p-id="2372" xmlns:xlink="http://www.w3.org/1999/xlink" width="16" height="16"><defs><style type="text/css"></style></defs><path d="M919.081967 713.442623c-16.786885-8.393443-33.57377-8.393443-41.967213 0l-176.262295 201.442623 0-889.704918c0-8.393443-8.393443-16.786885-16.786885-16.786885l-25.180328 0c-8.393443 0-16.786885 8.393443-16.786885 16.786885L642.098361 998.819672c0 8.393443 8.393443 16.786885 16.786885 16.786885l25.180328 0c0 0 0 0 0 0 8.393443 0 16.786885 0 25.180328-8.393443l218.229508-251.803279C935.868852 738.622951 935.868852 721.836066 919.081967 713.442623zM365.114754 8.393443l-25.180328 0c0 0 0 0 0 0-8.393443 0-16.786885 8.393443-25.180328 8.393443l-218.229508 251.803279c-8.393443 16.786885-8.393443 33.57377 0 41.967213 16.786885 8.393443 33.57377 8.393443 41.967213 0l167.868852-201.442623L306.360656 998.819672c0 8.393443 8.393443 16.786885 16.786885 16.786885l25.180328 0c8.393443 0 16.786885-8.393443 16.786885-16.786885l0-973.639344C381.901639 16.786885 373.508197 8.393443 365.114754 8.393443z" p-id="2373" fill="#00a8ff"></path></svg>