<?xml version="1.0" standalone="no"?><!DOCTYPE svg PUBLIC "-//W3C//DTD SVG 1.1//EN" "http://www.w3.org/Graphics/SVG/1.1/DTD/svg11.dtd"><svg t="1509096694051" class="icon" style="" viewBox="0 0 1024 1024" version="1.1" xmlns="http://www.w3.org/2000/svg" p-id="4221" xmlns:xlink="http://www.w3.org/1999/xlink" width="16" height="16"><defs><style type="text/css"></style></defs><path d="M511.998 62.021C263.469 62.021 62.004 263.483 62.004 512c0 248.519 201.467 449.978 449.994 449.978 248.528 0 449.997-201.459 449.997-449.978 0-248.518-201.47-449.979-449.997-449.979z m0 859.051C286.061 921.072 102.91 737.91 102.91 512c0-225.949 183.151-409.071 409.088-409.071S921.085 286.053 921.085 512c0 225.907-183.151 409.072-409.087 409.072z m224.999-409.07H532.45V246.105c0-11.304-9.166-20.453-20.453-20.453-11.286 0-20.454 9.147-20.454 20.453v286.348c0 11.286 9.17 20.453 20.454 20.453h224.999c11.285 0 20.454-9.168 20.454-20.453-0.002-11.302-9.17-20.452-20.454-20.452z" p-id="4222" fill="#37C7B7"></path></svg>